<svg viewBox="0 0 1080 1080" fill="none" xmlns="http://www.w3.org/2000/svg">      <defs>  <filter id="filter" x="-20%" y="-20%" width="140%" height="140%" filterUnits="objectBoundingBox" primitiveUnits="userSpaceOnUse" color-interpolation-filters="linearRGB">    <feMorphology operator="dilate" radius="20 20" in="SourceAlpha" result="morphology"/>    <feFlood flood-color="#ffffff" flood-opacity="1" result="flood"/>    <feComposite in="flood" in2="morphology" operator="in" result="composite"/>    <feMerge result="merge">          <feMergeNode in="composite" result="mergeNode"/>      <feMergeNode in="SourceGraphic" result="mergeNode1"/>      </feMerge>  </filter></defs>      <g id="notion-avatar" filter="url(#filter)">        <g id="notion-avatar-face" fill="#ffffff">      <!--?xml version="1.0" encoding="UTF-8"?-->    <title>Face/ 6</title>    <g id="Face/-6" stroke="none" stroke-width="1" fill-rule="evenodd" stroke-linecap="round" stroke-linejoin="round">        <path d="M532,379 C664.54834,379 772,486.45166 772,619 C772,751.54834 764.54834,899 532,899 C402.610491,899 332.317998,816.086314 305.249034,718.717925 C264.225797,715.291578 232,680.909158 232,639 C232,599.134956 261.158843,566.080325 299.312086,560.00055 C325.599297,455.979213 419.809919,379 532,379 Z M295.858895,624.545187 L304.141105,655.454813" id="Path" stroke="#000000" stroke-width="24"/>    </g>    </g><g id="notion-avatar-nose">      <g id="Nose/ 11"><path id="Path" fill-rule="evenodd" clip-rule="evenodd" d="M648.516 601C648.516 601 664.222 603.637 672 609.977C685.06 620.622 693.906 641.256 692.774 653.58C690.065 683.076 644 684.359 644 684.359C644 684.359 700 689.489 700 653.58C700 637.222 689.433 619.065 672 608.695C663.922 603.889 648.516 601 648.516 601Z" fill="black" stroke="black" stroke-width="6" stroke-linecap="round" stroke-linejoin="round"/></g>    </g><g id="notion-avatar-mouth">      <g id="Mouth/ 11"><path id="Path" fill-rule="evenodd" clip-rule="evenodd" d="M529 741C529 741 595 755 627 755C659 755 689 745.528 689 745.528C689 745.528 688 814 618 814C548 814 529 741 529 741Z" stroke="black" stroke-width="16" stroke-linecap="round" stroke-linejoin="round"/></g>    </g><g id="notion-avatar-eyes">      <!--?xml version="1.0" encoding="UTF-8"?-->    <title>Eyes/ 6</title>    <g id="Eyes/-6" stroke="none" stroke-width="1" fill="none" fill-rule="evenodd">        <g id="Group" transform="translate(518.000000, 518.575690)">            <circle id="Oval" fill="#000000" cx="48.2285714" cy="20" r="20"/>            <path d="M0,22.4243101 C16,9.09097677 32,2.42431011 48,2.42431011 C64,2.42431011 80,9.09097677 96,22.4243101" id="Path" stroke="#000000" stroke-width="12" stroke-linecap="round" stroke-linejoin="round"/>            <circle id="Oval" fill="#000000" transform="translate(193.771429, 20.000000) scale(-1, 1) translate(-193.771429, -20.000000) " cx="193.771429" cy="20" r="20"/>            <path d="M146,22.4243101 C162,9.09097677 178,2.42431011 194,2.42431011 C210,2.42431011 226,9.09097677 242,22.4243101" id="Path" stroke="#000000" stroke-width="12" stroke-linecap="round" stroke-linejoin="round" transform="translate(194.000000, 12.424310) scale(-1, 1) translate(-194.000000, -12.424310) "/>        </g>    </g>    </g><g id="notion-avatar-eyebrows">      <!--?xml version="1.0" encoding="UTF-8"?-->    <title>Eyebrows/ 3</title>    <g id="Eyebrows/-3" stroke="none" stroke-width="1" fill="none" fill-rule="evenodd" stroke-linecap="round" stroke-linejoin="round">        <g id="Group" transform="translate(512.000000, 484.000000)" stroke="#000000" stroke-width="24">            <path d="M152,14.0251712 C167.712271,3.95186377 182.349308,-0.695225271 195.911111,0.0839040908 C206.159229,0.672661315 219.876442,6.74452014 237.511111,14.0251712 C241.312508,15.5946162 247.475471,17.5862258 256,20" id="Path" transform="translate(204.000000, 10.000000) scale(-1, 1) translate(-204.000000, -10.000000) "/>            <path d="M0,14.0251712 C15.7122706,3.95186377 30.3493076,-0.695225271 43.9111111,0.0839040908 C54.1592293,0.672661315 67.8764421,6.74452014 85.5111111,14.0251712 C89.3125078,15.5946162 95.4754707,17.5862258 104,20" id="Path"/>        </g>    </g>    </g><g id="notion-avatar-glasses">      <!--?xml version="1.0" encoding="UTF-8"?-->    <title>Glasses/ 2</title>    <g id="Glasses/-2" stroke="none" stroke-width="1" fill="none" fill-rule="evenodd" stroke-linecap="round" stroke-linejoin="round">        <path d="M574.189838,502.353993 C586.612079,503.247679 601.018598,506.362134 617.409394,511.697357 C622.107339,513.226543 629.521032,514.112461 639.650474,514.355109 L640.336909,514.337568 C650.115498,514.071859 657.30038,513.191789 661.891553,511.697357 C678.282349,506.362134 692.688868,503.247679 705.11111,502.353993 C722.696433,501.088862 751.030506,503.214809 790.113329,508.731836 L791.300947,508.900056 L791.300947,529.629258 C786.297933,531.828279 783.752241,534.010301 783.663873,536.175322 C781.481852,589.634841 763.639862,606 723.65829,606 C685.15235,606 666.860184,585.095985 650.56058,541.630375 C648.424017,535.932875 644.892754,533.024776 639.966791,532.906078 L639.650474,532.90229 C634.559091,532.90229 630.922389,535.811651 628.740368,541.630375 C612.440763,585.095985 594.148598,606 555.642657,606 C515.661085,606 497.819095,589.634841 495.637074,536.175322 C495.548712,534.010446 493.003357,531.828573 488.00101,529.629702 L488,530 L289,550 L293,541 L487.999,509 L488,508.900056 C527.696939,503.258104 556.426885,501.076083 574.189838,502.353993 Z M564.611618,508.971486 C532.97231,506.789465 518.789172,513.335528 512.243109,520.972603 C505.697045,528.609677 493.695928,595.161324 551.51949,598.434355 C609.343052,601.707387 614.798105,534.06473 611.525073,526.427656 C608.252042,518.790581 596.250925,511.153507 564.611618,508.971486 Z M714.580942,508.971486 C682.941634,511.153507 670.940518,518.790581 667.667486,526.427656 C664.394454,534.06473 669.849507,601.707387 727.673069,598.434355 C785.496631,595.161324 773.495514,528.609677 766.949451,520.972603 C760.403387,513.335528 746.220249,506.789465 714.580942,508.971486 Z" id="Combined-Shape" stroke="#000000" stroke-width="4" fill="#000000"/>    </g>    </g><g id="notion-avatar-hair">      <!--?xml version="1.0" encoding="UTF-8"?-->    <title>Hairstyle/ 1</title>    <g id="Hairstyle/-1" stroke="none" stroke-width="1" fill="none" fill-rule="evenodd" stroke-linecap="round" stroke-linejoin="round">        <path d="M287.145773,564.824988 L328.116663,564.824988 L366,655 C383.576343,574.554316 392.364515,528.467337 392.364515,516.739062 C392.364515,505.010788 388.008266,481.271891 379.295767,445.522372 C393.491567,432.443591 404.392978,426.6028 412,428 C428.104379,430.95793 511.120052,457.788685 550.69367,460.998791 C604.369062,465.352796 671.588059,451.214009 697.999909,444.579207 C752.614423,430.859736 776.998449,384.728522 771.151988,306.185566 C744.360446,317.004973 718.309783,320.518315 693,316.725594 C655.035325,311.036511 598.649235,281.115006 554.702003,272.17357 C493.291099,259.679002 449.510289,258.16557 427.437429,265.136605 C385.349932,278.42865 355.621462,323.201887 338.252019,399.456316 C304.849244,410.402706 284.139523,426.431348 276.122857,447.542242 C268.106191,468.653136 271.780496,507.747385 287.145773,564.824988 Z" id="Path" stroke="#000000" stroke-width="12" fill="#000000"/>    </g>    </g><g id="notion-avatar-accessories">      <!--?xml version="1.0" encoding="UTF-8"?-->    <title>Accessories/ 0</title>    <g id="Accessories/-0" stroke="none" stroke-width="1" fill="none" fill-rule="evenodd"/>    </g><g id="notion-avatar-details">      <!--?xml version="1.0" encoding="UTF-8"?-->    <title>Details/ 0</title>    <g id="Details/-0" stroke="none" stroke-width="1" fill="none" fill-rule="evenodd"/>    </g><g id="notion-avatar-beard">      <!--?xml version="1.0" encoding="UTF-8"?-->    <title>Beard/ 0</title>    <g id="Beard/-0" stroke="none" stroke-width="1" fill="none" fill-rule="evenodd"/>    </g>      </g>      </svg>